Coordinates
version=1
nRows=14
nColumns=24
inDegrees=yes

Units are S.I. units (second, meters, Newtons, ...)
Angles are in degrees.

endheader
time	pelvis_tilt	pelvis_list	pelvis_rotation	pelvis_tx	pelvis_ty	pelvis_tz	hip_flexion_r	hip_adduction_r	hip_rotation_r	knee_angle_r	ankle_angle_r	subtalar_angle_r	mtp_angle_r	hip_flexion_l	hip_adduction_l	hip_rotation_l	knee_angle_l	ankle_angle_l	subtalar_angle_l	mtp_angle_l	lumbar_extension	lumbar_bending	lumbar_rotation
      0.45800000	     -5.12740197	      4.93023335	     -3.22371269	     -0.81819663	      1.02663482	      0.30572787	     34.10475419	     -2.20216676	      0.59790500	     -8.19272726	      8.03129486	      0.12012444	      7.95497750	    -11.88003942	      6.34856587	     -1.11853482	     -5.76917076	     20.26118965	      7.92579298	      1.99972619	    -12.71545336	     -3.91587797	     -3.53746675
      0.46216667	     -5.10402103	      4.89560127	     -3.12679444	     -0.81213424	      1.02570354	      0.30585340	     34.16104733	     -2.14986053	      0.66394359	     -8.62316103	      7.97199665	     -0.02962705	      7.95503666	    -12.03349446	      6.28281466	     -0.99835596	     -6.27873456	     20.43677369	      7.96188923	      2.01511439	    -12.74017141	     -3.75207538	     -3.54603431
      0.46633333	     -5.08230244	      4.82983704	     -3.04130885	     -0.80603151	      1.02480288	      0.30604131	     34.18947101	     -2.05250299	      0.83119453	     -9.06252329	      7.77368402	     -0.40657566	      7.96558690	    -12.13167733	      6.16584655	     -1.14276371	     -6.89884138	     20.67657312	      8.41191411	      2.08943971	    -12.77443801	     -3.53362746	     -3.65841681
      0.47050000	     -5.06731230	      4.76758162	     -2.94577028	     -0.79987118	      1.02393172	      0.30619528	     34.23382484	     -1.97015226	      0.92699983	     -9.58702618	      7.59862785	     -0.68370644	      7.98644260	    -12.22220706	      6.05591527	     -1.18608838	     -7.53332069	     20.87929286	      8.70917120	      2.18409394	    -12.78521216	     -3.32985270	     -3.66065894
      0.47466667	     -5.03643067	      4.69431655	     -2.84716477	     -0.79366967	      1.02313537	      0.30636594	     34.24806537	     -1.87942932	      1.02969563	    -10.14208847	      7.37108446	     -1.01611688	      8.01505722	    -12.32238987	      5.93119946	     -1.22526838	     -8.18108905	     21.03972509	      8.97212149	      2.30753510	    -12.81435012	     -3.10725447	     -3.69420606
      0.47883333	     -5.01329333	      4.61273395	     -2.74990573	     -0.78741178	      1.02237026	      0.30654618	     34.26238104	     -1.78090485	      1.12947208	    -10.73382189	      7.09829876	     -1.36985079	      8.05037983	    -12.40312989	      5.79574698	     -1.26865276	     -8.86022941	     21.17339632	      9.23711006	      2.45792203	    -12.82644482	     -2.87362419	     -3.70333439
      0.48300000	     -4.99943604	      4.52456257	     -2.64709500	     -0.78109749	      1.02164458	      0.30673044	     34.27669100	     -1.67951276	      1.21848707	    -11.35360287	      6.77481296	     -1.74245862	      8.08890026	    -12.46018358	      5.64930806	     -1.31470933	     -9.56840427	     21.27671772	      9.48912550	      2.63006424	    -12.82151425	     -2.63005740	     -3.72031450
      0.48716667	     -4.96799193	      4.42808127	     -2.54241945	     -0.77477407	      1.02099293	      0.30692736	     34.26579430	     -1.57351584	      1.30070275	    -11.99607233	      6.40729030	     -2.13334577	      8.13214663	    -12.51571673	      5.48988074	     -1.37735089	    -10.31819372	     21.36030907	      9.76823784	      2.83831995	    -12.84129786	     -2.37365151	     -3.72819755
      0.49133333	     -4.95743097	      4.32988343	     -2.43556004	     -0.76838298	      1.02035954	      0.30713341	     34.27235717	     -1.46822288	      1.36645818	    -12.66482340	      6.00127850	     -2.52345639	      8.17219641	    -12.53930758	      5.32662518	     -1.42697993	    -11.09544404	     21.39639748	     10.00380312	      3.06059893	    -12.82138692	     -2.11409991	     -3.72509482
      0.49550000	     -4.93429208	      4.22095757	     -2.32892996	     -0.76196944	      1.01980066	      0.30735880	     34.25451940	     -1.35407688	      1.43746787	    -13.33792116	      5.55624337	     -2.93234414	      8.21907464	    -12.54606183	      5.14511973	     -1.52465837	    -11.93169069	     21.41079978	     10.30021469	      3.35356018	    -12.82617550	     -1.84426149	     -3.72133357
      0.49966667	     -4.91655197	      4.10614524	     -2.22380354	     -0.75550162	      1.01928148	      0.30758399	     34.24514928	     -1.23934852	      1.46846269	    -14.04222234	      5.09217861	     -3.31757437	      8.25695097	    -12.54154583	      4.95777434	     -1.61058377	    -12.78122496	     21.38077970	     10.54098085	      3.65981414	    -12.80131048	     -1.56141177	     -3.70815663
      0.50383333	     -4.88713770	      3.98944311	     -2.11829370	     -0.74903374	      1.01883922	      0.30783501	     34.21655065	     -1.12458643	      1.50823747	    -14.74761758	      4.60261985	     -3.70707227	      8.29289993	    -12.51659628	      4.76041526	     -1.73806385	    -13.69008818	     21.30943976	     10.84037456	      4.04605722	    -12.80710858	     -1.28151147	     -3.68570151
      0.50800000	     -4.81240064	      3.84818988	     -2.00547061	     -0.74254161	      1.01852240	      0.30806590	     34.14156692	     -1.00618954	      1.45048986	    -15.47961950	      4.17086530	     -3.92913352	      8.42416949	    -12.50410120	      4.52336218	     -1.95041452	    -14.67928776	     21.22538140	     11.24990169	      5.62137153	    -12.87830524	     -0.97065524	     -3.60969153
      0.51216667	     -4.85930142	      3.76041435	     -1.90324046	     -0.73599874	      1.01806744	      0.30834441	     34.21227357	     -0.91871434	      1.47543921	    -16.24792771	      3.66846470	     -4.32725371	      8.41600023	    -12.38321855	      4.36887489	     -1.92592892	    -15.60534142	     20.98286222	     11.23922947	      5.80883732	    -12.74939452	     -0.72238062	     -3.62224058
